<svg xmlns="http://www.w3.org/2000/svg" xmlns:xlink="http://www.w3.org/1999/xlink" version="1.1" id="Слой_1" x="0px" y="0px" width="23.221px" height="20px" viewBox="0 0 23.221 20" style="enable-background:new 0 0 23.221 20;" xml:space="preserve">
<style type="text/css">
	.st0{fill:#FFFFFF;}
</style>
    <g>
	<path class="st0" d="M22.892,5.533c-0.359-0.534-0.958-0.853-1.6-0.854L6.64,4.651L5.889,1.486C5.682,0.611,4.908,0,4.008,0H0.876   C0.392,0,0,0.392,0,0.876s0.392,0.876,0.876,0.876h3.132c0.084,0,0.157,0.057,0.176,0.14l2.63,11.07   c0.207,0.875,0.981,1.486,1.881,1.486h10.197c0.791,0,1.494-0.473,1.791-1.206l2.397-5.904C23.321,6.743,23.251,6.067,22.892,5.533   z M21.455,6.68l-2.397,5.904c-0.027,0.067-0.095,0.113-0.167,0.113H8.694c-0.084,0-0.157-0.057-0.176-0.14L7.057,6.404   l14.232,0.027c0.079,0,0.125,0.043,0.149,0.08C21.462,6.547,21.485,6.606,21.455,6.68z"/>
        <circle class="st0" cx="9.486" cy="18.373" r="1.627"/>
        <circle class="st0" cx="18.81" cy="18.373" r="1.627"/>
</g>
</svg>